<svg width="29" height="40" viewBox="0 0 29 40" fill="none" xmlns="http://www.w3.org/2000/svg">
<path fill-rule="evenodd" clip-rule="evenodd" d="M11.7901 0.266103C6.06598 1.06809 0.652916 4.76954 0.134427 12.2958C-0.238885 17.9097 -0.197386 17.9508 5.23638 16.861C9.81982 15.9356 9.57093 16.1824 9.57093 12.7277C9.57093 9.78706 10.4005 8.12141 12.6611 6.96985C17.6801 4.44052 21.2888 11.1031 21.2888 13.2006C21.2888 15.5037 19.6296 16.717 14.4032 18.2181C10.1309 19.452 8.76205 21.1999 8.59613 25.5799C8.55465 26.8755 8.40955 27.9036 8.26438 28.0681C7.62145 28.8496 9.86126 29.5693 12.2463 29.3637C19.4015 28.7262 19.2978 28.7879 18.9037 26.1146C18.6549 24.4489 18.8207 24.2022 20.5214 23.6881C24.6278 22.4543 26.9714 20.11 28.2158 15.9973C31.4719 5.38645 24.3168 -1.46124 11.7901 0.266103ZM18.4889 1.49992C23.1553 2.17852 27.5107 8.16254 26.7018 12.8305C25.9552 17.1488 23.5909 19.8016 18.883 21.5495C16.6016 22.3926 15.8757 23.4619 15.855 25.9707V27.369C13.3247 27.6157 13.1588 27.6157 11.4997 27.8625C11.79 21.7962 11.3753 21.1793 18.9453 18.5472C23.6946 16.9021 24.7316 12.9744 21.6414 8.4093C16.6846 1.08864 3.92977 5.94165 6.3563 14.2288C6.45999 14.6195 6.52223 14.9691 6.48075 15.0102C6.41854 15.0719 3.72233 15.6683 3.51494 15.6683C3.4942 15.6683 3.34904 13.1389 3.2246 12.2752C2.1254 4.85178 10.0687 0.307231 18.4889 1.49992ZM10.6079 31.7079C6.87479 33.3941 6.72957 37.9181 10.359 39.2136C17.5971 41.8046 24.1509 37.548 20.0652 32.9212C18.8623 31.5228 12.7233 30.7414 10.6079 31.7079ZM15.9173 32.9417C17.5764 33.1885 19.0282 34.5046 19.0282 35.7384C19.0282 38.021 13.387 39.152 11.3546 37.2807C10.3591 36.3553 10.0272 32.0575 15.9173 32.9417Z" fill="#3F5C7C"/>
</svg>
